{
	"patcher" : 	{
		"fileversion" : 1,
		"appversion" : 		{
			"major" : 7,
			"minor" : 3,
			"revision" : 5,
			"architecture" : "x64",
			"modernui" : 1
		}
,
		"rect" : [ 45.0, 349.0, 597.0, 233.0 ],
		"bgcolor" : [ 0.694118, 0.694118, 0.694118, 1.0 ],
		"bglocked" : 0,
		"openinpresentation" : 1,
		"default_fontsize" : 11.595187,
		"default_fontface" : 0,
		"default_fontname" : "Lato",
		"gridonopen" : 1,
		"gridsize" : [ 15.0, 15.0 ],
		"gridsnaponopen" : 1,
		"objectsnaponopen" : 1,
		"statusbarvisible" : 2,
		"toolbarvisible" : 1,
		"lefttoolbarpinned" : 0,
		"toptoolbarpinned" : 0,
		"righttoolbarpinned" : 0,
		"bottomtoolbarpinned" : 0,
		"toolbars_unpinned_last_save" : 0,
		"tallnewobj" : 0,
		"boxanimatetime" : 200,
		"enablehscroll" : 1,
		"enablevscroll" : 1,
		"devicewidth" : 0.0,
		"description" : "",
		"digest" : "",
		"tags" : "",
		"style" : "",
		"subpatcher_template" : "",
		"boxes" : [ 			{
				"box" : 				{
					"id" : "obj-10",
					"maxclass" : "live.line",
					"numinlets" : 1,
					"numoutlets" : 0,
					"patching_rect" : [ 178.0, 23.0, 5.0, 100.0 ],
					"presentation" : 1,
					"presentation_rect" : [ 180.0, 23.0, 5.0, 100.0 ]
				}

			}
, 			{
				"box" : 				{
					"id" : "obj-8",
					"maxclass" : "live.line",
					"numinlets" : 1,
					"numoutlets" : 0,
					"patching_rect" : [ 197.0, 185.0, 5.0, 100.0 ],
					"presentation" : 1,
					"presentation_rect" : [ 129.0, 23.0, 5.0, 100.0 ]
				}

			}
, 			{
				"box" : 				{
					"fontname" : "Lato",
					"fontsize" : 11.0,
					"id" : "obj-3",
					"maxclass" : "comment",
					"numinlets" : 1,
					"numoutlets" : 0,
					"patching_rect" : [ 72.739281, 60.84127, 42.0, 20.0 ],
					"presentation" : 1,
					"presentation_rect" : [ 51.0, 23.0, 42.0, 20.0 ],
					"style" : "",
					"text" : "preset"
				}

			}
, 			{
				"box" : 				{
					"fontname" : "Lato",
					"fontsize" : 10.0,
					"id" : "obj-20",
					"maxclass" : "comment",
					"numinlets" : 1,
					"numoutlets" : 0,
					"patching_rect" : [ 34.049744, 134.523804, 34.0, 18.0 ],
					"presentation" : 1,
					"presentation_rect" : [ 26.0, 64.0, 33.0, 18.0 ],
					"style" : "",
					"text" : "recall"
				}

			}
, 			{
				"box" : 				{
					"fontname" : "Lato",
					"fontsize" : 10.0,
					"id" : "obj-2",
					"maxclass" : "message",
					"numinlets" : 2,
					"numoutlets" : 1,
					"outlettype" : [ "" ],
					"patching_rect" : [ 128.128647, 143.793655, 31.0, 20.0 ],
					"presentation" : 1,
					"presentation_rect" : [ 78.0, 66.0, 31.0, 20.0 ],
					"style" : "",
					"text" : "store"
				}

			}
, 			{
				"box" : 				{
					"fontname" : "Lato",
					"fontsize" : 11.0,
					"id" : "obj-19",
					"maxclass" : "comment",
					"numinlets" : 1,
					"numoutlets" : 0,
					"patching_rect" : [ 315.756439, 80.873016, 37.0, 20.0 ],
					"presentation" : 1,
					"presentation_rect" : [ 209.0, 23.0, 37.0, 20.0 ],
					"style" : "",
					"text" : "view "
				}

			}
, 			{
				"box" : 				{
					"fontname" : "Lato",
					"fontsize" : 10.0,
					"id" : "obj-16",
					"maxclass" : "message",
					"numinlets" : 2,
					"numoutlets" : 1,
					"outlettype" : [ "" ],
					"patching_rect" : [ 333.756439, 136.793655, 68.0, 20.0 ],
					"presentation" : 1,
					"presentation_rect" : [ 187.0, 66.0, 78.0, 20.0 ],
					"style" : "",
					"text" : "clientwindow",
					"textjustification" : 1
				}

			}
, 			{
				"box" : 				{
					"fontname" : "Lato",
					"fontsize" : 10.0,
					"id" : "obj-15",
					"maxclass" : "message",
					"numinlets" : 2,
					"numoutlets" : 1,
					"outlettype" : [ "" ],
					"patching_rect" : [ 315.756439, 107.206352, 78.0, 20.0 ],
					"presentation" : 1,
					"presentation_rect" : [ 187.0, 42.0, 78.0, 20.0 ],
					"style" : "",
					"text" : "storagewindow",
					"textjustification" : 1
				}

			}
, 			{
				"box" : 				{
					"fontname" : "Lato",
					"fontsize" : 10.0,
					"id" : "obj-14",
					"maxclass" : "message",
					"numinlets" : 2,
					"numoutlets" : 1,
					"outlettype" : [ "" ],
					"patching_rect" : [ 244.257294, 110.968254, 32.0, 20.0 ],
					"presentation" : 1,
					"presentation_rect" : [ 141.0, 42.0, 33.0, 20.0 ],
					"style" : "",
					"text" : "read",
					"textjustification" : 1
				}

			}
, 			{
				"box" : 				{
					"fontname" : "Lato",
					"fontsize" : 10.0,
					"id" : "obj-13",
					"maxclass" : "message",
					"numinlets" : 2,
					"numoutlets" : 1,
					"outlettype" : [ "" ],
					"patching_rect" : [ 261.257294, 134.793655, 33.0, 20.0 ],
					"presentation" : 1,
					"presentation_rect" : [ 141.0, 66.0, 33.0, 20.0 ],
					"style" : "",
					"text" : "write",
					"textjustification" : 1
				}

			}
, 			{
				"box" : 				{
					"comment" : "",
					"id" : "obj-11",
					"index" : 0,
					"maxclass" : "outlet",
					"numinlets" : 1,
					"numoutlets" : 0,
					"patching_rect" : [ 222.20755, 247.650787, 25.0, 25.0 ],
					"style" : ""
				}

			}
, 			{
				"box" : 				{
					"fontname" : "Lato",
					"fontsize" : 10.0,
					"id" : "obj-9",
					"maxclass" : "number",
					"minimum" : 0,
					"mousefilter" : 1,
					"numinlets" : 1,
					"numoutlets" : 2,
					"outlettype" : [ "", "bang" ],
					"parameter_enable" : 0,
					"patching_rect" : [ 182.898788, 125.936508, 48.0, 20.0 ],
					"presentation" : 1,
					"presentation_rect" : [ 70.0, 42.0, 48.0, 20.0 ],
					"style" : ""
				}

			}
, 			{
				"box" : 				{
					"fontname" : "Lato",
					"fontsize" : 11.595187,
					"id" : "obj-7",
					"maxclass" : "newobj",
					"numinlets" : 2,
					"numoutlets" : 1,
					"outlettype" : [ "" ],
					"patching_rect" : [ 128.128647, 164.888885, 74.0, 22.0 ],
					"style" : "",
					"text" : "pack store 1"
				}

			}
, 			{
				"box" : 				{
					"fontname" : "Lato",
					"fontsize" : 10.0,
					"id" : "obj-4",
					"maxclass" : "number",
					"minimum" : 0,
					"mousefilter" : 1,
					"numinlets" : 1,
					"numoutlets" : 2,
					"outlettype" : [ "", "bang" ],
					"parameter_enable" : 0,
					"patching_rect" : [ 14.939965, 106.936508, 48.0, 20.0 ],
					"presentation" : 1,
					"presentation_rect" : [ 19.0, 42.0, 48.0, 20.0 ],
					"style" : ""
				}

			}
, 			{
				"box" : 				{
					"fontname" : "Arial Black",
					"fontsize" : 13.237304,
					"id" : "obj-1",
					"maxclass" : "comment",
					"numinlets" : 1,
					"numoutlets" : 0,
					"patching_rect" : [ 12.0, 11.26984, 151.0, 25.0 ],
					"presentation" : 1,
					"presentation_rect" : [ 13.0, 1.0, 151.0, 25.0 ],
					"style" : "",
					"text" : "pattrstorage helper",
					"textcolor" : [ 0.8, 0.376471, 0.270588, 1.0 ]
				}

			}
, 			{
				"box" : 				{
					"fontname" : "Lato",
					"fontsize" : 11.0,
					"id" : "obj-17",
					"maxclass" : "comment",
					"numinlets" : 1,
					"numoutlets" : 0,
					"patching_rect" : [ 244.257294, 83.380951, 31.0, 20.0 ],
					"presentation" : 1,
					"presentation_rect" : [ 143.0, 23.0, 31.0, 20.0 ],
					"style" : "",
					"text" : "disk"
				}

			}
, 			{
				"box" : 				{
					"fontname" : "Lato",
					"fontsize" : 11.595187,
					"id" : "obj-6",
					"maxclass" : "newobj",
					"numinlets" : 2,
					"numoutlets" : 2,
					"outlettype" : [ "", "" ],
					"patching_rect" : [ 14.939965, 81.349205, 68.0, 22.0 ],
					"style" : "",
					"text" : "route int"
				}

			}
, 			{
				"box" : 				{
					"comment" : "",
					"id" : "obj-5",
					"index" : 0,
					"maxclass" : "inlet",
					"numinlets" : 0,
					"numoutlets" : 1,
					"outlettype" : [ "" ],
					"patching_rect" : [ 14.939965, 42.0, 23.0, 23.0 ],
					"style" : ""
				}

			}
 ],
		"lines" : [ 			{
				"patchline" : 				{
					"destination" : [ "obj-11", 0 ],
					"midpoints" : [ 270.757294, 218.809525, 231.70755, 218.809525 ],
					"source" : [ "obj-13", 0 ]
				}

			}
, 			{
				"patchline" : 				{
					"destination" : [ "obj-11", 0 ],
					"midpoints" : [ 253.757294, 213.793655, 231.70755, 213.793655 ],
					"source" : [ "obj-14", 0 ]
				}

			}
, 			{
				"patchline" : 				{
					"destination" : [ "obj-11", 0 ],
					"midpoints" : [ 325.256439, 227.587296, 231.70755, 227.587296 ],
					"source" : [ "obj-15", 0 ]
				}

			}
, 			{
				"patchline" : 				{
					"destination" : [ "obj-11", 0 ],
					"midpoints" : [ 343.256439, 233.857147, 231.70755, 233.857147 ],
					"source" : [ "obj-16", 0 ]
				}

			}
, 			{
				"patchline" : 				{
					"destination" : [ "obj-7", 0 ],
					"source" : [ "obj-2", 0 ]
				}

			}
, 			{
				"patchline" : 				{
					"color" : [ 0.415686, 0.239216, 0.109804, 1.0 ],
					"destination" : [ "obj-11", 0 ],
					"midpoints" : [ 24.439965, 228.841263, 231.70755, 228.841263 ],
					"order" : 0,
					"source" : [ "obj-4", 0 ]
				}

			}
, 			{
				"patchline" : 				{
					"color" : [ 0.415686, 0.239216, 0.109804, 1.0 ],
					"destination" : [ "obj-9", 0 ],
					"midpoints" : [ 24.439965, 158.619049, 109.018867, 158.619049, 109.018867, 114.15873, 192.398788, 114.15873 ],
					"order" : 1,
					"source" : [ "obj-4", 0 ]
				}

			}
, 			{
				"patchline" : 				{
					"destination" : [ "obj-6", 0 ],
					"source" : [ "obj-5", 0 ]
				}

			}
, 			{
				"patchline" : 				{
					"color" : [ 0.278431, 0.921569, 0.639216, 1.0 ],
					"destination" : [ "obj-11", 0 ],
					"midpoints" : [ 73.439965, 223.19841, 231.70755, 223.19841 ],
					"source" : [ "obj-6", 1 ]
				}

			}
, 			{
				"patchline" : 				{
					"destination" : [ "obj-4", 0 ],
					"source" : [ "obj-6", 0 ]
				}

			}
, 			{
				"patchline" : 				{
					"destination" : [ "obj-11", 0 ],
					"midpoints" : [ 137.628647, 215.047623, 231.70755, 215.047623 ],
					"source" : [ "obj-7", 0 ]
				}

			}
, 			{
				"patchline" : 				{
					"destination" : [ "obj-7", 1 ],
					"source" : [ "obj-9", 0 ]
				}

			}
 ],
		"dependency_cache" : [  ],
		"autosave" : 0
	}

}
